<mxfile host="app.diagrams.net" modified="2023-04-02T07:17:13.496Z" agent="Mozilla/5.0 (Windows NT 10.0; Win64; x64) AppleWebKit/537.36 (KHTML, like Gecko) Chrome/111.0.0.0 Safari/537.36 Edg/111.0.1661.62" etag="GluU-VmOXGfGD-cAWLor" version="21.1.2" type="github">
  <diagram id="C5RBs43oDa-KdzZeNtuy" name="Page-1">
    <mxGraphModel dx="600" dy="327" grid="1" gridSize="10" guides="1" tooltips="1" connect="1" arrows="1" fold="1" page="1" pageScale="1" pageWidth="827" pageHeight="1169" math="0" shadow="0">
      <root>
        <mxCell id="WIyWlLk6GJQsqaUBKTNV-0" />
        <mxCell id="WIyWlLk6GJQsqaUBKTNV-1" parent="WIyWlLk6GJQsqaUBKTNV-0" />
        <mxCell id="Zg4xSdY9HF_8HJ5zWb1G-8" value="Record" style="swimlane;fontStyle=1;align=center;verticalAlign=top;childLayout=stackLayout;horizontal=1;startSize=26;horizontalStack=0;resizeParent=1;resizeParentMax=0;resizeLast=0;collapsible=1;marginBottom=0;whiteSpace=wrap;html=1;" vertex="1" parent="WIyWlLk6GJQsqaUBKTNV-1">
          <mxGeometry x="174" y="132" width="286" height="320" as="geometry" />
        </mxCell>
        <mxCell id="Zg4xSdY9HF_8HJ5zWb1G-9" value="+ name: Name" style="text;strokeColor=none;fillColor=none;align=left;verticalAlign=top;spacingLeft=4;spacingRight=4;overflow=hidden;rotatable=0;points=[[0,0.5],[1,0.5]];portConstraint=eastwest;whiteSpace=wrap;html=1;" vertex="1" parent="Zg4xSdY9HF_8HJ5zWb1G-8">
          <mxGeometry y="26" width="286" height="26" as="geometry" />
        </mxCell>
        <mxCell id="Zg4xSdY9HF_8HJ5zWb1G-13" value="+ email: Email" style="text;strokeColor=none;fillColor=none;align=left;verticalAlign=top;spacingLeft=4;spacingRight=4;overflow=hidden;rotatable=0;points=[[0,0.5],[1,0.5]];portConstraint=eastwest;whiteSpace=wrap;html=1;" vertex="1" parent="Zg4xSdY9HF_8HJ5zWb1G-8">
          <mxGeometry y="52" width="286" height="26" as="geometry" />
        </mxCell>
        <mxCell id="Zg4xSdY9HF_8HJ5zWb1G-14" value="+ birthday: Birthday" style="text;strokeColor=none;fillColor=none;align=left;verticalAlign=top;spacingLeft=4;spacingRight=4;overflow=hidden;rotatable=0;points=[[0,0.5],[1,0.5]];portConstraint=eastwest;whiteSpace=wrap;html=1;" vertex="1" parent="Zg4xSdY9HF_8HJ5zWb1G-8">
          <mxGeometry y="78" width="286" height="26" as="geometry" />
        </mxCell>
        <mxCell id="Zg4xSdY9HF_8HJ5zWb1G-15" value="+ phones: list[Phone]" style="text;strokeColor=none;fillColor=none;align=left;verticalAlign=top;spacingLeft=4;spacingRight=4;overflow=hidden;rotatable=0;points=[[0,0.5],[1,0.5]];portConstraint=eastwest;whiteSpace=wrap;html=1;" vertex="1" parent="Zg4xSdY9HF_8HJ5zWb1G-8">
          <mxGeometry y="104" width="286" height="26" as="geometry" />
        </mxCell>
        <mxCell id="Zg4xSdY9HF_8HJ5zWb1G-24" value="+ home_address: HomeAddress" style="text;strokeColor=none;fillColor=none;align=left;verticalAlign=top;spacingLeft=4;spacingRight=4;overflow=hidden;rotatable=0;points=[[0,0.5],[1,0.5]];portConstraint=eastwest;whiteSpace=wrap;html=1;" vertex="1" parent="Zg4xSdY9HF_8HJ5zWb1G-8">
          <mxGeometry y="130" width="286" height="26" as="geometry" />
        </mxCell>
        <mxCell id="Zg4xSdY9HF_8HJ5zWb1G-10" value="" style="line;strokeWidth=1;fillColor=none;align=left;verticalAlign=middle;spacingTop=-1;spacingLeft=3;spacingRight=3;rotatable=0;labelPosition=right;points=[];portConstraint=eastwest;strokeColor=inherit;" vertex="1" parent="Zg4xSdY9HF_8HJ5zWb1G-8">
          <mxGeometry y="156" width="286" height="8" as="geometry" />
        </mxCell>
        <mxCell id="Zg4xSdY9HF_8HJ5zWb1G-11" value="+ add_phone(Phone): None" style="text;strokeColor=none;fillColor=none;align=left;verticalAlign=top;spacingLeft=4;spacingRight=4;overflow=hidden;rotatable=0;points=[[0,0.5],[1,0.5]];portConstraint=eastwest;whiteSpace=wrap;html=1;" vertex="1" parent="Zg4xSdY9HF_8HJ5zWb1G-8">
          <mxGeometry y="164" width="286" height="26" as="geometry" />
        </mxCell>
        <mxCell id="Zg4xSdY9HF_8HJ5zWb1G-17" value="+ create_phone(Record, str, bool): None" style="text;strokeColor=none;fillColor=none;align=left;verticalAlign=top;spacingLeft=4;spacingRight=4;overflow=hidden;rotatable=0;points=[[0,0.5],[1,0.5]];portConstraint=eastwest;whiteSpace=wrap;html=1;" vertex="1" parent="Zg4xSdY9HF_8HJ5zWb1G-8">
          <mxGeometry y="190" width="286" height="26" as="geometry" />
        </mxCell>
        <mxCell id="Zg4xSdY9HF_8HJ5zWb1G-21" value="+ create_email(Record, str): None" style="text;strokeColor=none;fillColor=none;align=left;verticalAlign=top;spacingLeft=4;spacingRight=4;overflow=hidden;rotatable=0;points=[[0,0.5],[1,0.5]];portConstraint=eastwest;whiteSpace=wrap;html=1;" vertex="1" parent="Zg4xSdY9HF_8HJ5zWb1G-8">
          <mxGeometry y="216" width="286" height="26" as="geometry" />
        </mxCell>
        <mxCell id="Zg4xSdY9HF_8HJ5zWb1G-25" value="+ create_birthday(Record, str): None" style="text;strokeColor=none;fillColor=none;align=left;verticalAlign=top;spacingLeft=4;spacingRight=4;overflow=hidden;rotatable=0;points=[[0,0.5],[1,0.5]];portConstraint=eastwest;whiteSpace=wrap;html=1;" vertex="1" parent="Zg4xSdY9HF_8HJ5zWb1G-8">
          <mxGeometry y="242" width="286" height="26" as="geometry" />
        </mxCell>
        <mxCell id="Zg4xSdY9HF_8HJ5zWb1G-26" value="+ home_address_create(Record, str): None" style="text;strokeColor=none;fillColor=none;align=left;verticalAlign=top;spacingLeft=4;spacingRight=4;overflow=hidden;rotatable=0;points=[[0,0.5],[1,0.5]];portConstraint=eastwest;whiteSpace=wrap;html=1;" vertex="1" parent="Zg4xSdY9HF_8HJ5zWb1G-8">
          <mxGeometry y="268" width="286" height="26" as="geometry" />
        </mxCell>
        <mxCell id="Zg4xSdY9HF_8HJ5zWb1G-27" value="+ formatting_record(Record): dict" style="text;strokeColor=none;fillColor=none;align=left;verticalAlign=top;spacingLeft=4;spacingRight=4;overflow=hidden;rotatable=0;points=[[0,0.5],[1,0.5]];portConstraint=eastwest;whiteSpace=wrap;html=1;" vertex="1" parent="Zg4xSdY9HF_8HJ5zWb1G-8">
          <mxGeometry y="294" width="286" height="26" as="geometry" />
        </mxCell>
      </root>
    </mxGraphModel>
  </diagram>
</mxfile>
